<svg width="72" height="70" viewBox="0 0 72 70" fill="none" xmlns="http://www.w3.org/2000/svg">
<path d="M30.2475 42.5933L28.4821 40.374L1.57422 47.4596L3.71401 50.1334L26.2621 43.7965L26.2888 43.85L14.8944 64.1708L17.0877 66.9248L30.2475 42.5933Z" fill="#AABB9F"/>
<path d="M27.2556 35.6956L27.8708 32.9148L5.53672 16.3105L4.78779 19.6528L23.8052 33.3159L23.7785 33.3961L0.775676 37.1394L0 40.5886L27.2556 35.6956Z" fill="#AABB9F"/>
<path d="M30.7587 29.0374L33.3265 27.8075L32.3903 0L29.2876 1.47059L30.4645 24.8663L30.411 24.8931L13.1322 9.27808L9.94922 10.8021L30.7587 29.0374Z" fill="#AABB9F"/>
<path d="M38.1406 27.6471L40.7084 28.877L61.8923 10.8021L58.7896 9.30482L41.2433 24.8128L41.1631 24.7861L42.6342 1.52406L39.4512 0L38.1406 27.6471Z" fill="#AABB9F"/>
<path d="M43.8633 32.5405L44.4785 35.2945L71.8144 40.5886L71.0654 37.2464L47.9824 33.1822V33.102L67.0801 19.7597L66.2776 16.3105L43.8633 32.5405Z" fill="#AABB9F"/>
<path d="M43.6007 40.0527L41.8086 42.272L54.7276 66.9244L56.8674 64.2506L45.6602 43.6891L45.7137 43.6356L68.0478 50.2132L70.2679 47.4592L43.6007 40.0527Z" fill="#AABB9F"/>
<path d="M37.5262 44.5186H34.691L23.457 69.9999H26.8807L35.9748 48.4223H36.0551L44.8282 69.9999H48.3589L37.5262 44.5186Z" fill="#AABB9F"/>
</svg>
