<!--?xml version="1.0" encoding="UTF-8"?--><svg id="Layer_1" xmlns="http://www.w3.org/2000/svg" viewBox="0 0 1600 1600"><defs><style>.cls-1,.cls-2,.cls-3,.cls-4{fill:none;}.cls-5,.cls-6,.cls-2{stroke-width:1.80px;}.cls-5,.cls-6,.cls-2,.cls-7,.cls-8,.cls-9,.cls-10,.cls-11,.cls-12,.cls-13,.cls-14,.cls-15,.cls-16,.cls-3,.cls-17{stroke:#202870;}.cls-5,.cls-6,.cls-2,.cls-7,.cls-8,.cls-9,.cls-10,.cls-11,.cls-12,.cls-13,.cls-14,.cls-15,.cls-16,.cls-3,.cls-17,.cls-4{stroke-linecap:round;stroke-linejoin:round;}.cls-5,.cls-7,.cls-11,.cls-12{fill:#2AF2F0;}.cls-6,.cls-18,.cls-8,.cls-9,.cls-10,.cls-13,.cls-14,.cls-15,.cls-16{fill:#fff;}.cls-19{fill:#f94b81;}.cls-20,.cls-17{fill:#202870;}.cls-7,.cls-8{stroke-width:1.80px;}.cls-9{stroke-width:1.80px;}.cls-10{stroke-width:1.80px;}.cls-11,.cls-13,.cls-3{stroke-width:1.80px;}.cls-12,.cls-14,.cls-4{stroke-width:1.80px;}.cls-15{stroke-width:1.80px;}.cls-16{stroke-width:1.80px;}.cls-17{stroke-width:1.80px;}.cls-4{stroke:#fff;}</style></defs><rect class="cls-16" x="104.11" y="97" width="632.89" height="796.44"></rect><polyline class="cls-13" points="1540.56 747.67 1202.78 747.67 1202.78 97"></polyline><line class="cls-7" x1="114.22" y1="1384.78" x2="1485.78" y2="1384.78"></line><rect class="cls-11" x="670.6" y="935.12" width="258.8" height="430.25"></rect><path class="cls-11" d="m623.95,1345.96h352.1c19.48,0,35.3,15.82,35.3,35.3v3.52h-422.7v-3.52c0-19.48,15.82-35.3,35.3-35.3Z"></path><polygon class="cls-20" points="669.79 1223.03 930.21 1158.33 928.59 1077.46 669.79 1145.39 669.79 1223.03"></polygon><rect class="cls-11" x="227.41" y="438.55" width="1145.18" height="710.89" rx="25.88" ry="25.88"></rect><rect class="cls-13" x="244.39" y="496.3" width="1111.21" height="595.39"></rect><rect class="cls-13" x="610.75" y="533.98" width="724.63" height="514.36"></rect><rect class="cls-11" x="885.11" y="829.99" width="223.53" height="197.31"></rect><rect class="cls-13" x="901.45" y="847.55" width="190.86" height="162.21"></rect><path class="cls-11" d="m971.09,902.5s-38.69-6.4-38.26,10.03,30.95,24.5,30.95,24.5c0,0-23.21,36.11-9.03,41.27,14.19,5.16,37.4-25.79,37.4-25.79,0,0,39.98,33.53,51.58,16.77,11.61-16.77-14.19-34.82-14.19-34.82,0,0,37.4-24.5,27.08-38.69-10.32-14.19-39.98,7.74-39.98,7.74,0,0,1.29-29.66-21.92-29.66s-23.64,28.66-23.64,28.66Z"></path><line class="cls-13" x1="1149.09" y1="569.49" x2="1298.68" y2="569.49"></line><line class="cls-13" x1="1149.09" y1="600.44" x2="1298.68" y2="600.44"></line><line class="cls-13" x1="1149.09" y1="631.39" x2="1298.68" y2="631.39"></line><line class="cls-13" x1="1149.09" y1="662.34" x2="1298.68" y2="662.34"></line><line class="cls-13" x1="1149.09" y1="693.29" x2="1298.68" y2="693.29"></line><line class="cls-13" x1="1149.09" y1="724.24" x2="1298.68" y2="724.24"></line><line class="cls-13" x1="1149.09" y1="755.19" x2="1298.68" y2="755.19"></line><line class="cls-13" x1="1149.09" y1="786.15" x2="1298.68" y2="786.15"></line><line class="cls-13" x1="1149.09" y1="817.1" x2="1298.68" y2="817.1"></line><polyline class="cls-3" points="1298.65 1048.37 1298.65 846.33 1149.09 846.33 1149.09 1048.37"></polyline><rect class="cls-3" x="634.93" y="560.46" width="216.66" height="466.84"></rect><circle class="cls-6" cx="860.16" cy="207.05" r="12.26"></circle><circle class="cls-6" cx="873.41" cy="158.85" r="12.26"></circle><path class="cls-18" d="m862.01,153.41s-10.16,30.42-13.86,51.2l20.65,5.23,15.65-46.32-22.44-10.11Z"></path><line class="cls-6" x1="868.79" y1="209.84" x2="884.44" y2="163.52"></line><path class="cls-6" d="m862.01,153.41s-10.78,28.8-13.86,51.2"></path><circle class="cls-10" cx="950.35" cy="210.8" r="11.81"></circle><circle class="cls-10" cx="944.77" cy="160.17" r="11.81"></circle><path class="cls-18" d="m962.08,213.89c2.1-9.29-2.31-48.72-6.37-58.4l-21.76,9.66,5.98,44.51"></path><line class="cls-2" x1="933.96" y1="165.14" x2="939.17" y2="209.71"></line><path class="cls-2" d="m962.08,213.89c2.1-9.29-2.31-48.72-6.37-58.4"></path><line class="cls-6" x1="904.13" y1="428.63" x2="903.77" y2="436.45"></line><path class="cls-18" d="m932.16,141.18s13.11,2.6,19.87,8.09l-11.87,23.23s.26,57.19.51,57.96-66.38,2.3-66.38,2.3l6.13-60.51-10.47-24.6s11.74-6.3,28.09-7.7c14.76-1.27,34.13,1.23,34.13,1.23Z"></path><path class="cls-2" d="m869.27,147.14s11.32-6.09,27.66-7.49c14.76-1.27,24.85.34,24.85.34,0,0,19.91,1.02,29.4,9.79"></path><path class="cls-2" d="m939.31,173.01s.26,57.19.51,57.96-66.38,2.3-66.38,2.3l6.13-60.51"></path><polyline class="cls-6" points="865.46 428.98 864.66 437.87 943.95 437.16 943.86 427.92"></polyline><path class="cls-5" d="m889.46,175.74s.09,34.22-4.53,50.93c-1.79,6.48-7.92,6.93-11.73,6.93l-7.73,195.38s8.45-8.69,21.24-8.18c8.89.36,17.42,7.82,17.42,7.82,0,0,7.11-7.47,21.33-7.47,9.6,0,18.4,6.76,18.4,6.76l-.27-195.38s-11.64,1.78-11.11-22.04c.19-8.41-.53-33.33-.53-33.33l-42.49-1.42Z"></path><path class="cls-5" d="m892.75,184.89s-1.93-31.55-6.38-43.46l7.02-1.36s5.05,29.71,5.05,41.09"></path><path class="cls-5" d="m928.75,184.45s-.09-30.4,1.96-42.76l-6.49-.8s-1.16,28.44-1.16,39.82"></path><line class="cls-5" x1="904.13" y1="427.56" x2="908.4" y2="258.14"></line><polygon class="cls-5" points="898.35 192.55 897.64 216.01 909.02 223.12 923.24 216.01 923.59 192.55 898.35 192.55"></polygon><path class="cls-5" d="m901.46,256.01s7.47,3.73,12.8,1.07"></path><path class="cls-2" d="m865.73,430.41s16.71,4.62,38.04,1.42c0,0,19.91,2.49,40.18-.71"></path><path class="cls-2" d="m926.35,235.03s4.27.44,5.87-2.84"></path><line class="cls-5" x1="924.22" y1="140.89" x2="919.95" y2="140.63"></line><circle class="cls-6" cx="906.21" cy="186.34" r="10.89"></circle><path class="cls-6" d="m856.12,195.28s33.2-14.74,48.91-20.65l6.63,21.67-45.82,21.83"></path><path class="cls-6" d="m881.98,183.73s-.92,12.6,7.52,21.93"></path><path class="cls-6" d="m910.96,196.77l2.63-1.12s.9,3.35,3.75,2.34c2.84-1.01,15.57-8.11,11.63-14.72-3.94-6.61-8.71-13.1-15.92-11.39-1.46.35-5.44,1.83-9.35,3.27"></path><path class="cls-6" d="m913.15,195.57s6.54-2.75,8.12-3.8"></path><line class="cls-2" x1="917.7" y1="193.23" x2="927.82" y2="235.05"></line><circle class="cls-6" cx="933.76" cy="246.29" r="11.81"></circle><path class="cls-6" d="m944.93,252.67c-2.31,3.66-8.06,8.12-17.84,7.41-7.48-.54-8.76-10.24-7.82-17.6,1.07-8.36,12.44-8,12.44-8"></path><path class="cls-18" d="m939.57,207.31l-8.43,27.91,12.51,18.64c10.13-10.81,18.57-40.3,18.64-40.51"></path><path class="cls-2" d="m943.65,253.86c10.13-10.81,18.57-40.3,18.64-40.51"></path><line class="cls-2" x1="939.57" y1="207.31" x2="931.14" y2="235.22"></line><path class="cls-6" d="m936.15,220.26c.71-.53,14.93-.36,19.73,9.96"></path><path class="cls-6" d="m921.21,145.94l.26-20.78s-12.35-2.11-15.82-2.31-7.01-2.79-7.01-2.79l-1.07,25.83"></path><path class="cls-20" d="m921,135.1l-.52-14.02-12.76,7.39s2.17,6.89,13.28,6.64Z"></path><path class="cls-6" d="m898.62,135.56s11.66,4.9,22.76.94"></path><circle class="cls-1" cx="909.35" cy="144.41" r="11.91"></circle><path class="cls-6" d="m903.97,125.7c5.64,5.17,14.81,6.32,18.83,1.76s1.25-15.34,1.26-16.71c.07-7.96-.77-10.77-2.73-13.15-4.76-5.78-20.13-4.96-24.07,2.65-3.6,6.94.82,18.63.82,18.63"></path><path class="cls-6" d="m916.46,110.2s.07,1.7.75,2.38c.68.68,1.36.27,1.9,1.36.54,1.09-.5,2.22-1.53,2.43"></path><path class="cls-19" d="m894.54,110.61s4.52-3.87,7.41,2.22c0,0,1.53.38,2.39-1.34.54-1.09,1.36-8.56,3.18-7.12.81.64.17,3.68.17,3.68,0,0,2-.11,4.94-.51.57-.48,2.45-2.21,2.61-4.08,0,0,.65,1.95,0,3.68.59-.1,1.19-.21,1.82-.33,5.16-1,7.17-3.44,7.17-3.44,0,0,4.59-9.9-9.47-10.33,0,0-11.8-3.68-17.5,2.44-2.59,2.78-3.44,7.98-2.73,15.13Z"></path><path class="cls-6" d="m902.21,113.57s-1.63-4.28-4.69-4.08c-3.26.22-4.22,2.65-3.67,6.12.58,3.67,4.01,5.37,4.83,5.37,1.56,0,2.65-1.02,2.79-2.24"></path><circle class="cls-6" cx="1130.11" cy="207.05" r="12.26"></circle><circle class="cls-6" cx="1116.86" cy="158.85" r="12.26"></circle><path class="cls-18" d="m1128.26,153.41s10.16,30.42,13.86,51.2l-20.65,5.23-15.65-46.32,22.44-10.11Z"></path><line class="cls-6" x1="1121.47" y1="209.84" x2="1105.82" y2="163.52"></line><path class="cls-6" d="m1128.26,153.41s10.78,28.8,13.86,51.2"></path><circle class="cls-10" cx="1039.91" cy="210.8" r="11.81"></circle><circle class="cls-10" cx="1045.5" cy="160.17" r="11.81"></circle><path class="cls-18" d="m1028.19,213.89c-2.1-9.29,2.31-48.72,6.37-58.4l21.76,9.66-5.98,44.51"></path><line class="cls-2" x1="1056.31" y1="165.14" x2="1051.1" y2="209.71"></line><path class="cls-2" d="m1028.19,213.89c-2.1-9.29,2.31-48.72,6.37-58.4"></path><line class="cls-6" x1="1086.14" y1="428.63" x2="1086.49" y2="436.45"></line><path class="cls-18" d="m1058.11,141.18s-13.11,2.6-19.87,8.09l11.87,23.23s-.26,57.19-.51,57.96,66.38,2.3,66.38,2.3l-6.13-60.51,10.47-24.6s-11.74-6.3-28.09-7.7c-14.76-1.27-34.13,1.23-34.13,1.23Z"></path><path class="cls-2" d="m1121,147.14s-11.32-6.09-27.66-7.49c-14.76-1.27-24.85.34-24.85.34,0,0-19.91,1.02-29.4,9.79"></path><path class="cls-2" d="m1050.96,173.01s-.26,57.19-.51,57.96,66.38,2.3,66.38,2.3l-6.13-60.51"></path><polyline class="cls-6" points="1124.8 428.98 1125.6 437.87 1046.31 437.16 1046.4 427.92"></polyline><path class="cls-5" d="m1100.8,175.74s-.09,34.22,4.53,50.93c1.79,6.48,7.92,6.93,11.73,6.93l7.73,195.38s-8.45-8.69-21.24-8.18c-8.89.36-17.42,7.82-17.42,7.82,0,0-7.11-7.47-21.33-7.47-9.6,0-18.4,6.76-18.4,6.76l.27-195.38s11.64,1.78,11.11-22.04c-.19-8.41.53-33.33.53-33.33l42.49-1.42Z"></path><path class="cls-5" d="m1097.51,184.89s1.93-31.55,6.38-43.46l-7.02-1.36s-5.05,29.71-5.05,41.09"></path><path class="cls-5" d="m1061.51,184.45s.09-30.4-1.96-42.76l6.49-.8s1.16,28.44,1.16,39.82"></path><line class="cls-5" x1="1086.14" y1="427.56" x2="1081.87" y2="258.14"></line><polygon class="cls-5" points="1091.92 192.55 1092.63 216.01 1081.25 223.12 1067.03 216.01 1066.67 192.55 1091.92 192.55"></polygon><path class="cls-5" d="m1088.8,256.01s-7.47,3.73-12.8,1.07"></path><path class="cls-2" d="m1124.54,430.41s-16.71,4.62-38.04,1.42c0,0-19.91,2.49-40.18-.71"></path><path class="cls-2" d="m1063.91,235.03s-4.27.44-5.87-2.84"></path><line class="cls-5" x1="1066.05" y1="140.89" x2="1070.31" y2="140.63"></line><path class="cls-6" d="m1069.06,145.94l-.26-20.78s12.35-2.11,15.82-2.31,7.01-2.79,7.01-2.79l1.07,25.83"></path><path class="cls-20" d="m1092,128.18l-.44-7.11-22.21,4.96s6.54,8.12,12.7,7.75c3.15-.19,7.29-1.59,9.96-5.6Z"></path><path class="cls-6" d="m1091.65,135.56s-12.8,4.53-21.6.53"></path><circle class="cls-1" cx="1080.91" cy="144.41" r="11.91"></circle><path class="cls-6" d="m1091.08,112.1s1.5-4.28,4.3-4.08c2.99.22,3.87,2.65,3.37,6.12-.53,3.67-3.68,5.37-4.43,5.37-1.43,0-2.43-1.02-2.56-2.24"></path><path class="cls-6" d="m1067.72,112.1s-1.39-4.28-3.99-4.08c-2.78.22-3.59,2.65-3.12,6.12.49,3.67,3.41,5.37,4.11,5.37,1.33,0,2.26-1.02,2.37-2.24"></path><path class="cls-18" d="m1093.33,105.07s2.13,11.91-3.38,18.67c-5.51,6.76-18.49,10.4-22.76-.27-4.27-10.67-.18-25.87.09-26.04s25.16-2.58,26.04,7.64Z"></path><path class="cls-6" d="m1065.68,110.32c-.07-7.96,1.38-10.33,3.34-12.71,4.76-5.78,19.21-4.95,23.15,2.67,1.91,3.69,1.57,11.12,1.07,15.02"></path><path class="cls-6" d="m1093.06,118.49c-3.82,14.31-19.28,13.71-23.29,9.16-2.43-2.76-3.57-7.46-4.02-11.19"></path><path class="cls-6" d="m1074.62,116.09c.44-.65,3.2-2.53,5.33,0"></path><path class="cls-6" d="m1076.62,110.36c.13.53.13,3.2-.67,4.4"></path><path class="cls-19" d="m1066.4,112.54s-1.63-1.14-2.31-5.07c-.76-4.36.45-10.23,2.8-13.24,4.27-5.47,15.51-6.67,22.4-2.67,5.22,3.03,6.44,10.4,4.93,19.73-.17,1.03-1.73,0-2.13-1.87s-.89-4.27-2.84-6.31c0,0-1.38,3.88-3.73,4.36-10.04,2.04-16.18-7.73-18.22-3.91,0,0-.89,3.11-.89,8.98Z"></path><circle class="cls-6" cx="1084.05" cy="186.34" r="10.89"></circle><path class="cls-6" d="m1134.15,195.28s-33.2-14.74-48.91-20.65l-6.63,21.67,45.82,21.83"></path><path class="cls-6" d="m1108.29,183.73s.92,12.6-7.52,21.93"></path><path class="cls-6" d="m1079.31,196.77l-2.63-1.12s-.9,3.35-3.75,2.34c-2.84-1.01-15.57-8.11-11.63-14.72,3.94-6.61,8.71-13.1,15.92-11.39,1.46.35,5.44,1.83,9.35,3.27"></path><path class="cls-6" d="m1077.12,195.57s-6.54-2.75-8.12-3.8"></path><line class="cls-2" x1="1072.56" y1="193.23" x2="1062.45" y2="235.05"></line><circle class="cls-6" cx="1056.51" cy="246.29" r="11.81"></circle><path class="cls-6" d="m1045.34,252.67c2.31,3.66,8.06,8.12,17.84,7.41,7.48-.54,8.76-10.24,7.82-17.6-1.07-8.36-12.44-8-12.44-8"></path><path class="cls-18" d="m1050.7,207.31l8.43,27.91-12.51,18.64c-10.13-10.81-18.57-40.3-18.64-40.51"></path><path class="cls-2" d="m1046.62,253.86c-10.13-10.81-18.57-40.3-18.64-40.51"></path><line class="cls-2" x1="1050.7" y1="207.31" x2="1059.13" y2="235.22"></line><path class="cls-6" d="m1054.11,220.26c-.71-.53-14.93-.36-19.73,9.96"></path><line class="cls-2" x1="928.4" y1="260.33" x2="926.22" y2="630.76"></line><line class="cls-2" x1="1058.62" y1="260.67" x2="1056.35" y2="630.76"></line><rect class="cls-12" x="871.1" y="579.06" width="250.68" height="221.27"></rect><rect class="cls-14" x="889.42" y="598.74" width="214.04" height="181.9"></rect><path class="cls-20" d="m1026.65,717.65s-66.85-46.28-84.84-45.64c-18,.64-50.78,28.92-52.06,30.85l-.32,77.77h214.04l-.32-86.77c-2.57,1.29-28.92-16.71-49.49-18-20.57-1.29-67.49,14.78-67.49,14.78"></path><line class="cls-4" x1="982.94" y1="688.57" x2="1042.24" y2="726.17"></line><circle class="cls-19" cx="1015.72" cy="640.84" r="10.61"></circle><path class="cls-8" d="m324.25,692.52h192.82c25.67,0,46.48,20.81,46.48,46.48v309.35h-264.35v-330.77c0-13.84,11.22-25.05,25.05-25.05Z"></path><path class="cls-8" d="m543.11,705.06c-14.22-8.54-26.23,1.63-31.11,22.22-5.63,23.76-9.78,42.57-9.78,42.57l-232.78,3.59s1.67-12.33,8.5-35.83c8.71-29.94,22.25-46.5,47.69-45.1l196.14.44"></path><polygon class="cls-20" points="300.76 811.84 495.65 769.85 298.37 773.56 300.76 811.84"></polygon><circle class="cls-15" cx="136.88" cy="1269.3" r="14.55"></circle><path class="cls-6" d="m138.1,1254.84l44.49-8.87s16.19,12.38,10.09,16.58c-3.84,2.64-28.36,15.41-50.72,20.64"></path><path class="cls-6" d="m182.59,1245.97s3.33-4.83,8.3-5.64c2.89-.48,7.31,1.85,7.31,1.85,0,0-5.73,4.39-.57,6.89,1.67.81,9.25-.8,9.25-.8,0,0-2.88,8.57-14.2,14.27"></path><circle class="cls-1" cx="188.16" cy="1253.76" r="9.79"></circle><circle class="cls-6" cx="133.4" cy="1230.18" r="14.81"></circle><path class="cls-6" d="m150.4,1268.05l-2.7-40.94-28.5,10.12s.35,28.48,3.9,37.15"></path><path class="cls-6" d="m118.76,1229.86l-3.4,23.15c15.49,5.62,32.9-2.87,33.7-3.57l-1.11-24.11"></path><path class="cls-20" d="m140.64,1369.2l-6.18-3.43,347.55-542.4c1.02-1.59,3.23-2.11,4.94-1.16h0c1.71.95,2.27,3,1.25,4.59l-347.55,542.4Z"></path><path class="cls-18" d="m168.46,1212.16c19.23.85,25.19,8,25.19,8l-4.36,18.29c3.2,16-4.98,28.62-4.98,28.62l.53,24.53s-40.38.97-56.38-.8l.34-75.06s8-2.55,19.06-3.4"></path><path class="cls-2" d="m128.46,1216.07s8.34-2.89,19.4-3.74"></path><path class="cls-2" d="m168.46,1212.16c19.23.85,25.19,8,25.19,8l-4.36,18.29c3.2,16-4.98,28.62-4.98,28.62l.53,24.53s-40.38.97-56.38-.8l.22-49.41"></path><circle class="cls-1" cx="156.63" cy="1291.99" r="27.83"></circle><path class="cls-18" d="m169.11,1212.69l-.78-13.55s-12.92-11.21-16.39-11.41c-3.47-.2-4.59,4.49-4.59,4.49l-.38,20.74"></path><line class="cls-2" x1="147.27" y1="1214.93" x2="148.22" y2="1189.05"></line><line class="cls-2" x1="168.13" y1="1202.03" x2="168.72" y2="1214.2"></line><path class="cls-6" d="m147.51,1209.85s12.71,3.29,21.51-.71"></path><circle class="cls-1" cx="158.25" cy="1214.88" r="10.55"></circle><path class="cls-6" d="m154.06,1197.58c5.64,5.17,14.81,6.32,18.83,1.76,4.01-4.56,1.25-15.34,1.26-16.71.07-7.96-.77-10.77-2.73-13.15-4.76-5.78-20.13-4.96-24.07,2.65-3.6,6.94.82,18.63.82,18.63"></path><path class="cls-19" d="m137.64,1206.16s20.8,5.47,35.07.67c0,0-2.29-2.95-3.33-6.27-1.15-3.64-1.14-7.52-.53-8.13l1.87-6.93.8-5.07,5.2-2.13s.13-7.07-5.47-11.33c-5.6-4.27-19.47-3.87-24.53,3.07-2.36,3.22-4.4,6.53-4.53,19.47-.08,7.78-4.53,16.67-4.53,16.67Z"></path><path class="cls-6" d="m172.26,1186.22s-1.46-3.84-4.21-3.66c-2.93.2-3.74,2.53-2.81,5.59.97,3.18,3.11,4.71,3.84,4.71"></path><path class="cls-6" d="m183.42,1497.31l1.78,12.44h55.29l.53-2.43c1.61-7.38-2.68-14.78-9.89-17.04l-5.93-1.86"></path><polyline class="cls-6" points="119.6 1499.63 119.24 1509.76 160.27 1509.8 160.58 1500.51"></polyline><path class="cls-5" d="m128.84,1291.63s-5.96,35.92-6.76,55.82c-1.78,44.44-2.49,152.89-2.49,152.89,0,0,6.76,1.98,19.56,2.49,8.89.36,21.33-2.13,21.33-2.13l1.96-127.47,21.51,128.53s10.67,1.6,21.87-.53c16.65-3.17,20.62-12.27,20.62-12.27l-38.22-171.38-3.38-26.49-56,.53Z"></path><path class="cls-2" d="m163.24,1378.83l-8.8-37.07s-6.93-2.13-14.4-6.93"></path><path class="cls-5" d="m225.91,1486.29c.27.8,2.53,13.73,2.53,13.73"></path><circle class="cls-6" cx="239.52" cy="1206.54" r="9.79"></circle><circle class="cls-15" cx="217.31" cy="1255.31" r="14.55"></circle><path class="cls-6" d="m207.27,1244.84l22.73-39.26s19.99-3.97,19.11,3.38c-.55,4.63-7.16,31.47-18.01,51.71"></path><path class="cls-6" d="m230,1205.58s-1.42-5.69,1.24-9.96c1.55-2.49,6.22-4.27,6.22-4.27,0,0-.49,7.2,4.8,4.98,1.71-.72,5.51-7.47,5.51-7.47,0,0,4.53,7.82,1.33,20.09"></path><circle class="cls-18" cx="185.65" cy="1232.07" r="14.81"></circle><path class="cls-6" d="m225.31,1244.33l-32.51-25.02-11.23,28.09s21.62,18.55,30.47,21.62"></path><path class="cls-6" d="m179.33,1246.47l14.58,11.02c7.82-6.04,13.51-25.6,13.51-26.67l-15.81-12.88"></path><path class="cls-17" d="m434.44,821.62h98.13c0,4.11-3.33,7.44-7.44,7.44h-83.25c-4.11,0-7.44-3.33-7.44-7.44h0Z"></path><path class="cls-5" d="m170.98,1293.23c-10.67-24.53-29.33-79.82-29.33-79.82l-6.4,1.07c4.44,11.91,30.4,84.09,30.4,84.09"></path><path class="cls-5" d="m143.24,1296.43s29.87-67.02,36.18-82.84l-6.49-.8s-26.31,63.56-35.02,79.91"></path><circle class="cls-6" cx="1402.13" cy="1270.46" r="14.38"></circle><path class="cls-6" d="m1401.71,1285.05c-15.24-.3-46.68-24.23-49.18-27.93-3.16-4.67-2.94-9.9-2.94-9.9l10.6,4.25s-.62-5.33.25-6.9c.87-1.56,5.26.98,8.21,8.03l28.57,8.9"></path><path class="cls-6" d="m1415.96,1273.46s3.34-10.46.4-30.67l-28.81-6.27,2.3,27.23"></path><circle class="cls-6" cx="1401.48" cy="1229.13" r="14.38"></circle><path class="cls-6" d="m1415.5,1225.05l4.6,25.91c-9.18,3.66-30.17.64-31.09.09l-2.68-22.35"></path><polygon class="cls-9" points="1353.33 1248.96 1308.9 1248.96 1291.11 1206.3 1335.54 1206.3 1353.33 1248.96"></polygon><path class="cls-6" d="m1354.51,1497.31l-1.78,12.44h-55.29l-.53-2.43c-1.61-7.38,2.68-14.78,9.89-17.04l5.93-1.86"></path><polyline class="cls-6" points="1418.33 1499.63 1418.68 1509.76 1377.66 1509.8 1377.35 1500.51"></polyline><path class="cls-5" d="m1409.08,1291.63s5.96,35.92,6.76,55.82c1.78,44.44,2.49,152.89,2.49,152.89,0,0-6.76,1.98-19.56,2.49-8.89.36-21.33-2.13-21.33-2.13l-1.96-127.47-21.51,128.53s-10.67,1.6-21.87-.53c-16.65-3.17-20.62-12.27-20.62-12.27l38.22-171.38,3.38-26.49,56,.53Z"></path><path class="cls-2" d="m1374.68,1378.83l8.8-37.07s6.93-2.13,14.4-6.93"></path><path class="cls-5" d="m1312.02,1486.29c-.27.8-2.53,13.73-2.53,13.73"></path><path class="cls-20" d="m1323.65,1211.11h-15.11c-.5,0-.95-.3-1.14-.77l-2.26-5.53c-.33-.81.26-1.7,1.14-1.7h15.11c.5,0,.95.3,1.14.77l2.26,5.53c.33.81-.26,1.7-1.14,1.7Z"></path><path class="cls-6" d="m1408.37,1290.91c-16,1.78-55.29.18-55.29.18l.53-24.53s-8.18-12.62-4.98-28.62l-7.87-9.1s7.57-17.55,28.51-17.38l21.38-.26s10.28,1.26,15.85,4.57"></path><path class="cls-5" d="m1366.95,1293.23c10.67-24.53,29.61-80.73,29.61-80.73l6.21,1.66c-4.44,11.91-30.49,84.4-30.49,84.4"></path><path class="cls-5" d="m1394.68,1296.43s-27.61-66.98-33.92-82.8l6.1-1.59s24.45,64.3,33.16,80.66"></path><line class="cls-5" x1="1408.37" y1="1290.91" x2="1406.59" y2="1245.4"></line><circle class="cls-1" cx="1380.13" cy="1291.56" r="26.94"></circle><circle class="cls-9" cx="1307.03" cy="1243.78" r="7.15"></circle><circle class="cls-6" cx="1332.35" cy="1273.1" r="14.38"></circle><path class="cls-6" d="m1324.45,1285.38c-7.35-4.63-23.94-38.07-23.94-38.07,0,0,12.85-10.04,12.37-6.79l19.88,22.36"></path><path class="cls-6" d="m1300.94,1248.41c-2.98-5.7-4.13-10.95-4.2-12.34-.3-5.63,2.59-10,2.59-10l6.89,9.11s2.22-4.89,3.78-5.78c1.56-.89,4.22,4.13,3.11,11.69"></path><path class="cls-6" d="m1342.64,1282.8s8.26-7.23,16.17-26.07l-21.44-20.23-12.09,24.51"></path><circle class="cls-18" cx="1353.11" cy="1237.35" r="14.38"></circle><path class="cls-6" d="m1365.45,1244.67l-9.54,19.55c-9.76-1.6-24.3-13.58-24.81-14.52l9.24-20.52"></path><path class="cls-18" d="m1368.82,1212.69l.78-13.55s12.92-11.21,16.39-11.41c3.47-.2,4.59,4.49,4.59,4.49l.38,20.74"></path><line class="cls-2" x1="1390.6" y1="1214.2" x2="1389.71" y2="1189.05"></line><line class="cls-2" x1="1369.26" y1="1212.51" x2="1369.79" y2="1202.03"></line><path class="cls-6" d="m1390.42,1209.85s-12.71,3.29-21.51-.71"></path><circle class="cls-1" cx="1379.88" cy="1211.39" r="10.6"></circle><path class="cls-19" d="m1381.6,1198.85s-3.75,2.55-3.23,5.56c.52,3.01,3.57,3.98,3.57,3.98,0,0-2.44,2.94-2.06,5.79s3.18,5.28,3.18,5.28c0,0-2.7,1.91-1.95,5.28.44,2,2.1,2.75,2.1,2.75,0,0-2.8,3.8-.94,6.76s5.89-3.28,4.06-6.68c0,0,3.46-5.31-.1-8.5,0,0,3.56-7-.46-10.11,0,0,4.21-6.82,1.38-10.74"></path><path class="cls-19" d="m1382.81,1234.59s-2.81,1.63-2.67,4.44,1.33,7.11,1.33,7.11c0,0,3.85-4.74,3.85-8.3s-.74-4.74-.74-4.74"></path><path class="cls-6" d="m1369.67,1202.3c-.89-.33-2.91-1-4.63-2.95-4.01-4.56-1.25-15.34-1.26-16.71-.07-7.96.77-10.77,2.73-13.15,4.76-5.78,20.13-4.96,24.07,2.65,3.6,6.94-.82,18.63-.82,18.63"></path><path class="cls-19" d="m1390.67,1196.3c6.82-11.49,2.91-23.05.55-26.27-5.07-6.93-18.65-6.93-24.53-3.07-7.13,4.67-3.72,9.19-3.72,9.19,0,0,1.85.74,3.04,3.81.51,1.32,1.22,5.53,1.22,5.53l1.87,6.93c.61.61,3.04,8.05,12.81,8.54,2.22.11,6.67-1.11,8.78-4.67Z"></path><path class="cls-6" d="m1365.67,1186.22s1.46-3.84,4.21-3.66c2.93.2,3.74,2.53,2.81,5.59-.97,3.18-3.11,4.71-3.84,4.71"></path><rect class="cls-13" x="446.37" y="1463.63" width="73.78" height="25.78" rx="12.89" ry="12.89"></rect><rect class="cls-13" x="538.81" y="1463.63" width="73.78" height="25.78" rx="12.89" ry="12.89"></rect><rect class="cls-13" x="977.93" y="1463.63" width="73.78" height="25.78" rx="12.89" ry="12.89"></rect><rect class="cls-13" x="1071.26" y="1463.63" width="73.78" height="25.78" rx="12.89" ry="12.89"></rect><rect class="cls-13" x="629.48" y="1463.63" width="328.44" height="25.78" rx="12.89" ry="12.89"></rect><path class="cls-13" d="m434.02,1475.19h731.95c19.11,0,34.62,15.51,34.62,34.62H399.41c0-19.11,15.51-34.62,34.62-34.62Z"></path><line class="cls-7" x1="161.78" y1="1509.8" x2="1456.44" y2="1509.8"></line></svg>