<svg id="Layer_1" data-name="Layer 1" xmlns="http://www.w3.org/2000/svg" viewBox="0 0 1600 1600"><defs><style>.cls-1{fill:#fff;}.cls-1,.cls-2,.cls-3,.cls-4,.cls-6{stroke:#202870;}.cls-1,.cls-2,.cls-3,.cls-4,.cls-5,.cls-6{stroke-linecap:round;stroke-linejoin:round;stroke-width:2.00px;}.cls-2,.cls-5,.cls-7{fill:#202870;}.cls-3{fill:#2AF2F0;}.cls-4{fill:none;}.cls-5{stroke:#2AF2F0;}.cls-6{fill:#f94a82;}</style></defs><title>Artboard 10</title><rect class="cls-1" x="203.16" y="805.1" width="486.83" height="351.42"></rect><polygon class="cls-2" points="689.99 1113.33 285.53 1069.15 285.53 1069.15 689.99 805.1 689.99 1113.33"></polygon><circle class="cls-3" cx="192.7" cy="654.46" r="10.46"></circle><circle class="cls-4" cx="255.35" cy="704.6" r="6.1"></circle><circle class="cls-4" cx="132.04" cy="872.36" r="9"></circle><circle class="cls-3" cx="864.97" cy="1172.71" r="8.98"></circle><circle class="cls-3" cx="798.58" cy="1226.64" r="4.49"></circle><circle class="cls-4" cx="1434.46" cy="623.5" r="10.26"></circle><circle class="cls-3" cx="1396.52" cy="718.97" r="14.36"></circle><circle class="cls-3" cx="1404.23" cy="525.48" r="6.66"></circle><rect class="cls-1" x="285.24" y="368.87" width="1075.87" height="700.19"></rect><rect class="cls-5" x="285.24" y="368.87" width="1075.87" height="50.5"></rect><circle class="cls-6" cx="318.62" cy="394.12" r="7.54"></circle><circle class="cls-1" cx="352.68" cy="394.12" r="7.54"></circle><circle class="cls-3" cx="386.74" cy="394.12" r="7.54"></circle><line class="cls-4" x1="812.05" y1="614.75" x2="985.77" y2="614.75"></line><line class="cls-4" x1="812.05" y1="671.16" x2="917.89" y2="671.16"></line><line class="cls-4" x1="359.7" y1="899.84" x2="533.42" y2="899.84"></line><line class="cls-4" x1="359.7" y1="956.25" x2="885.78" y2="956.25"></line><line class="cls-4" x1="359.7" y1="1012.65" x2="718.41" y2="1012.65"></line><rect class="cls-3" x="359.7" y="614.75" width="389.52" height="228.68"></rect><circle class="cls-2" cx="554.46" cy="729.09" r="64.17"></circle><polygon class="cls-1" points="536.89 753.54 536.89 704.65 585.78 729.09 536.89 753.54"></polygon><rect class="cls-4" x="359.7" y="476.14" width="926.96" height="70.24"></rect><circle class="cls-4" cx="399.28" cy="506.98" r="14.99"></circle><line class="cls-4" x1="409.74" y1="517.72" x2="422.55" y2="530.54"></line><line class="cls-4" x1="447.06" y1="476.14" x2="447.06" y2="546.38"></line><line class="cls-4" x1="481.74" y1="511.26" x2="822.83" y2="511.26"></line><rect class="cls-7" x="1271.18" y="744.58" width="25.8" height="480.1" transform="translate(-308.94 1268.58) rotate(-47.59)"></rect><path class="cls-3" d="M1436.58,1161.09,1263.44,998.36l32.88-34.84,173.13,162.72a24,24,0,0,1,1,33.86h0A24,24,0,0,1,1436.58,1161.09Z"></path><circle class="cls-2" cx="1060.84" cy="807.02" r="217.58"></circle><circle class="cls-6" cx="1084.32" cy="786.98" r="217.58"></circle><circle class="cls-1" cx="1084.32" cy="786.98" r="177.27"></circle><line class="cls-4" x1="957.42" y1="863.35" x2="1211.22" y2="863.35"></line><rect class="cls-3" x="1151.71" y="710.6" width="40.03" height="152.75"></rect><rect class="cls-3" x="1093.44" y="750.69" width="40.03" height="112.66"></rect><rect class="cls-3" x="1035.17" y="790.78" width="40.03" height="72.58"></rect><rect class="cls-3" x="976.91" y="830.86" width="40.03" height="32.49"></rect></svg>