<!--?xml version="1.0" encoding="UTF-8"?--><svg id="Layer_1" xmlns="http://www.w3.org/2000/svg" viewBox="0 0 1600 1600"><defs><style>.cls-1{fill:#028b34;}.cls-2{fill:#020202;}.cls-3,.cls-4{fill:#fff;}.cls-5,.cls-6{fill:#ffc044;}.cls-7{fill:#fe3456;}.cls-8,.cls-9{fill:#2AF2F0;}.cls-10{stroke-miterlimit:10;}.cls-10,.cls-9,.cls-4,.cls-11,.cls-6,.cls-12,.cls-13{stroke-width:1.70px;}.cls-10,.cls-4,.cls-12{stroke:#020202;}.cls-10,.cls-12,.cls-13{fill:none;}.cls-9{stroke:#2AF2F0;}.cls-9,.cls-4,.cls-11,.cls-6,.cls-12,.cls-13{stroke-linecap:round;stroke-linejoin:round;}.cls-11{fill:#efe4b5;stroke:#efe4b5;}.cls-6{stroke:#ffc044;}.cls-13{stroke:#fff;}</style></defs><path class="cls-10" d="m319.81,506.68v147.61c0,24.08-19.52,43.59-43.59,43.59h-40.69c-24.08,0-43.59,19.52-43.59,43.59v485.27c0,24.08,19.52,43.59,43.59,43.59h1090.49c24.08,0,43.59-19.52,43.59-43.59v-360.25c0-24.08-19.52-43.59-43.59-43.59h-2.14c-24.08,0-43.59-19.52-43.59-43.59v-30.06c0-24.08,19.52-43.59,43.59-43.59h59.06c24.08,0,43.59-19.52,43.59-43.59v-185.57c0-24.08-19.52-43.59-43.59-43.59H363.4c-24.08,0-43.59,19.52-43.59,43.59v30.2Z"></path><g id="laptop"><g><g><polygon class="cls-8" points="1278.65 1206.87 336.29 1206.87 439.62 1047.05 1175.32 1047.05 1278.65 1206.87"></polygon><rect class="cls-2" x="336.29" y="1206.87" width="942.35" height="22.96"></rect></g><g><rect class="cls-2" x="439.62" y="579.29" width="735.7" height="467.77"></rect><path class="cls-8" d="m1144.26,520.77H470.68c-17.15,0-31.06,13.91-31.06,31.06v32.88h735.7v-32.88c0-17.15-13.91-31.06-31.06-31.06Z"></path></g><g><line class="cls-12" x1="410.52" y1="1092.06" x2="1204.42" y2="1092.06"></line><line class="cls-12" x1="375.49" y1="1146.25" x2="1239.45" y2="1146.25"></line></g><g><line class="cls-12" x1="899.43" y1="1047.05" x2="920.1" y2="1206.87"></line><line class="cls-12" x1="991.39" y1="1047.05" x2="1032.73" y2="1206.87"></line><line class="cls-12" x1="1083.36" y1="1047.05" x2="1155.69" y2="1206.87"></line><line class="cls-12" x1="807.47" y1="1047.05" x2="807.47" y2="1206.87"></line><line class="cls-12" x1="715.51" y1="1047.05" x2="694.84" y2="1206.87"></line><line class="cls-12" x1="623.55" y1="1047.05" x2="582.21" y2="1206.87"></line><line class="cls-12" x1="531.58" y1="1047.05" x2="459.25" y2="1206.87"></line></g></g></g><g><g><rect class="cls-4" x="1080.28" y="354.72" width="379.51" height="237.89"></rect><g><rect class="cls-9" x="1079.72" y="332.69" width="380.44" height="22.03"></rect><g><circle class="cls-7" cx="1099.37" cy="343.82" r="4.04"></circle><circle class="cls-5" cx="1115.32" cy="343.82" r="4.04"></circle><circle class="cls-3" cx="1131.28" cy="343.82" r="4.04"></circle></g></g><g><path class="cls-2" d="m1179.42,458.77c2.92-3.39,6.62-5.09,11.1-5.09,8.5,0,12.82,4.85,12.94,14.56v26.06h-8.96v-25.73c0-2.75-.6-4.7-1.79-5.84-1.19-1.14-2.94-1.71-5.25-1.71-3.59,0-6.27,1.6-8.04,4.79v28.5h-8.96v-56.63h8.96v21.09Z"></path><path class="cls-2" d="m1223.73,444.72v9.7h7.04v6.64h-7.04v22.27c0,1.52.3,2.62.9,3.3.6.68,1.68,1.01,3.23,1.01,1.03,0,2.08-.12,3.13-.37v6.93c-2.04.57-4.01.85-5.9.85-6.88,0-10.32-3.8-10.32-11.39v-22.6h-6.56v-6.64h6.56v-9.7h8.96Z"></path><path class="cls-2" d="m1248.84,444.72v9.7h7.04v6.64h-7.04v22.27c0,1.52.3,2.62.9,3.3.6.68,1.68,1.01,3.23,1.01,1.03,0,2.08-.12,3.13-.37v6.93c-2.04.57-4.01.85-5.9.85-6.88,0-10.32-3.8-10.32-11.39v-22.6h-6.56v-6.64h6.56v-9.7h8.96Z"></path><path class="cls-2" d="m1297.65,474.77c0,6.17-1.4,11.09-4.2,14.77s-6.56,5.51-11.28,5.51c-4.38,0-7.88-1.44-10.51-4.31v18.91h-8.96v-55.23h8.26l.37,4.06c2.63-3.19,6.21-4.79,10.73-4.79,4.87,0,8.68,1.81,11.45,5.44,2.76,3.63,4.15,8.66,4.15,15.1v.55Zm-8.92-.77c0-3.98-.79-7.14-2.38-9.47-1.58-2.33-3.85-3.5-6.8-3.5-3.66,0-6.29,1.51-7.89,4.53v17.7c1.62,3.1,4.28,4.65,7.96,4.65,2.85,0,5.08-1.15,6.69-3.45,1.61-2.3,2.42-5.78,2.42-10.45Z"></path><path class="cls-2" d="m1310.62,453.57c1.67,0,2.96.47,3.87,1.42s1.36,2.13,1.36,3.56-.46,2.56-1.36,3.48c-.91.92-2.2,1.38-3.87,1.38s-2.86-.45-3.8-1.36c-.93-.91-1.4-2.08-1.4-3.5s.45-2.61,1.36-3.56,2.19-1.42,3.83-1.42Zm0,31.3c1.67,0,2.96.47,3.87,1.42.91.95,1.36,2.13,1.36,3.56s-.46,2.56-1.36,3.48c-.91.92-2.2,1.38-3.87,1.38s-2.86-.45-3.8-1.36c-.93-.91-1.4-2.08-1.4-3.5s.45-2.61,1.36-3.56c.91-.95,2.19-1.42,3.83-1.42Z"></path><path class="cls-2" d="m1327.77,498.92h-7.04l21.12-58.29h7.04l-21.12,58.29Z"></path><path class="cls-2" d="m1348.48,498.92h-7.04l21.12-58.29h7.04l-21.12,58.29Z"></path></g></g><g><rect class="cls-4" x="599.51" y="488.63" width="417.79" height="522.21"></rect><rect class="cls-11" x="622.28" y="500.35" width="372.25" height="510.48"></rect><g><rect class="cls-9" x="622.27" y="803.38" width="372.25" height="103.72"></rect><path class="cls-12" d="m622.27,838.46c13.29,1.33,26.37,3.32,39.32,6.78,22.63,6.05,44.21,14.82,66.91,20.67,22.54,5.81,45.93,7.66,69.23,5.05,23.52-2.63,46.09-8.94,68.21-16.33,21.29-7.12,42.27-12.64,65.05-14.44,21.1-1.67,42.36-1.06,63.43.72"></path></g><rect class="cls-3" x="737.04" y="827.11" width="142.71" height="56.28"></rect><rect class="cls-7" x="622.28" y="512.07" width="372.25" height="98.2"></rect><rect class="cls-3" x="675.24" y="528.01" width="266.32" height="66.32"></rect><rect class="cls-6" x="599.51" y="488.63" width="417.79" height="23.45"></rect><g><rect class="cls-9" x="598.89" y="464.37" width="418.8" height="24.25"></rect><g><circle class="cls-7" cx="620.53" cy="476.62" r="4.45"></circle><circle class="cls-5" cx="638.09" cy="476.62" r="4.45"></circle><circle class="cls-3" cx="655.65" cy="476.62" r="4.45"></circle></g></g><g><g><circle class="cls-8" cx="679.32" cy="664.67" r="27.56"></circle><g><line class="cls-12" x1="798.15" y1="664.67" x2="725.3" y2="664.67"></line><line class="cls-12" x1="798.15" y1="646.61" x2="725.3" y2="646.61"></line><line class="cls-12" x1="798.15" y1="682.73" x2="725.3" y2="682.73"></line></g></g><g><circle class="cls-5" cx="679.32" cy="750.68" r="27.56"></circle><g><line class="cls-12" x1="798.15" y1="750.68" x2="725.3" y2="750.68"></line><line class="cls-12" x1="798.15" y1="732.62" x2="725.3" y2="732.62"></line><line class="cls-12" x1="798.15" y1="768.74" x2="725.3" y2="768.74"></line></g></g><g><circle class="cls-1" cx="846.21" cy="664.67" r="27.56"></circle><g><line class="cls-12" x1="965.05" y1="664.67" x2="892.2" y2="664.67"></line><line class="cls-12" x1="965.05" y1="646.61" x2="892.2" y2="646.61"></line><line class="cls-12" x1="965.05" y1="682.73" x2="892.2" y2="682.73"></line></g></g><g><circle class="cls-3" cx="846.21" cy="750.68" r="27.56"></circle><g><line class="cls-12" x1="965.05" y1="750.68" x2="892.2" y2="750.68"></line><line class="cls-12" x1="965.05" y1="732.62" x2="892.2" y2="732.62"></line><line class="cls-12" x1="965.05" y1="768.74" x2="892.2" y2="768.74"></line></g></g></g><g><line class="cls-12" x1="968.71" y1="960.97" x2="648.09" y2="960.97"></line><line class="cls-12" x1="968.71" y1="983.04" x2="648.09" y2="983.04"></line><line class="cls-12" x1="968.71" y1="938.9" x2="648.09" y2="938.9"></line></g><g><line class="cls-12" x1="866.53" y1="855.25" x2="750.27" y2="855.25"></line><line class="cls-12" x1="866.53" y1="840.08" x2="750.27" y2="840.08"></line><line class="cls-12" x1="866.53" y1="870.42" x2="750.27" y2="870.42"></line></g></g><g><rect class="cls-4" x="130.94" y="902.9" width="379.51" height="237.89"></rect><g><rect class="cls-9" x="130.38" y="880.87" width="380.44" height="22.03"></rect><g><circle class="cls-7" cx="150.03" cy="892" r="4.04"></circle><circle class="cls-5" cx="165.98" cy="892" r="4.04"></circle><circle class="cls-3" cx="181.93" cy="892" r="4.04"></circle></g></g><g><polygon class="cls-2" points="382.73 1004.42 277.09 966.77 316.84 1070 336.72 1027.08 382.73 1004.42"></polygon><rect class="cls-2" x="336.56" y="1013.6" width="19.31" height="44.69" transform="translate(-631.12 548.23) rotate(-45)"></rect></g></g><g><rect class="cls-4" x="1090.53" y="901.75" width="379.51" height="237.89"></rect><g><rect class="cls-9" x="1089.97" y="879.71" width="380.44" height="22.03"></rect><g><circle class="cls-7" cx="1109.62" cy="890.84" r="4.04"></circle><circle class="cls-5" cx="1125.58" cy="890.84" r="4.04"></circle><circle class="cls-3" cx="1141.53" cy="890.84" r="4.04"></circle></g></g><g><path class="cls-2" d="m1227.99,1034.26l8.26-40.4h9.25l-12.39,53.68h-8.92l-10.21-39.19-10.43,39.19h-8.96l-12.39-53.68h9.25l8.33,40.33,10.25-40.33h7.82l10.14,40.4Z"></path><path class="cls-2" d="m1294.42,1034.26l8.26-40.4h9.25l-12.39,53.68h-8.92l-10.21-39.19-10.43,39.19h-8.96l-12.39-53.68h9.25l8.33,40.33,10.25-40.33h7.82l10.14,40.4Z"></path><path class="cls-2" d="m1360.86,1034.26l8.26-40.4h9.25l-12.39,53.68h-8.92l-10.21-39.19-10.43,39.19h-8.96l-12.39-53.68h9.25l8.33,40.33,10.25-40.33h7.82l10.14,40.4Z"></path></g></g><g><rect class="cls-4" x="130.15" y="351.7" width="379.51" height="237.89"></rect><g><rect class="cls-9" x="129.59" y="329.66" width="380.44" height="22.03"></rect><g><circle class="cls-7" cx="149.24" cy="340.79" r="4.04"></circle><circle class="cls-5" cx="165.19" cy="340.79" r="4.04"></circle><circle class="cls-3" cx="181.15" cy="340.79" r="4.04"></circle></g></g><g><circle class="cls-4" cx="319.9" cy="470.64" r="82.54"></circle><ellipse class="cls-12" cx="319.9" cy="470.64" rx="53.09" ry="82.54"></ellipse><ellipse class="cls-12" cx="319.9" cy="470.64" rx="18.39" ry="82.54"></ellipse><g><line class="cls-12" x1="266.84" y1="407.73" x2="372.97" y2="407.73"></line><line class="cls-12" x1="237.37" y1="470.64" x2="402.44" y2="470.64"></line><line class="cls-12" x1="266.84" y1="533.55" x2="372.97" y2="533.55"></line></g></g></g></g><g><rect class="cls-4" x="1236.69" y="691.34" width="176.77" height="176.77" rx="25.28" ry="25.28" transform="translate(2650.16 1559.45) rotate(180)"></rect><g><path class="cls-5" d="m1325.06,724.69h.02c.18,0,.35,0,.53,0,19.79.28,35.85,16.56,35.88,36.34,0,1.46-.08,2.89-.25,4.31-.89,7.7-4.19,14.67-9.12,20.14-2.95,3.27-5.44,6.87-7.45,10.73-.16.3-.32.61-.47.92-.65,1.3-1.25,2.64-1.79,3.99-.18.45-.36.91-.52,1.36-.26.72-.52,1.45-.75,2.18-.07.21-.13.41-.2.62-.07.24-.14.47-.21.71-.75,2.56-1.32,5.18-1.68,7.84-.03.2-.06.41-.09.61l-1.22,9.56h-25.33l-1.3-10.17-.13-.99c-.3-2.32-.76-4.61-1.39-6.85-.07-.24-.13-.47-.2-.7-.07-.23-.14-.46-.21-.68,0-.01,0-.03,0-.04-.07-.22-.14-.45-.22-.67-.08-.25-.16-.49-.25-.73-.09-.24-.17-.49-.26-.73-.07-.2-.15-.4-.22-.6-.06-.17-.13-.34-.2-.51-.06-.16-.13-.32-.19-.48,0-.01,0-.02-.01-.03-.06-.15-.13-.31-.19-.47-.08-.18-.15-.37-.23-.55-.23-.55-.48-1.09-.74-1.63-.08-.18-.17-.36-.26-.54-.09-.18-.17-.36-.26-.54-2.07-4.09-4.7-7.9-7.85-11.31-5.08-5.51-8.48-12.59-9.39-20.44-.16-1.39-.25-2.81-.25-4.24,0-20.1,16.3-36.4,36.4-36.41Z"></path><polygon class="cls-2" points="1322.9 813.84 1327.25 813.84 1330.17 784.72 1319.99 784.72 1322.9 813.84"></polygon><polyline class="cls-12" points="1310.86 765.28 1319.99 784.72 1330.17 784.72 1339.2 765.83"></polyline><path class="cls-12" d="m1337.66,761.32c-1.08,1.15-1.74,2.85-3.7,2.85-2.96,0-2.96-3.88-5.91-3.88s-2.96,3.88-5.92,3.88-2.96-3.88-5.92-3.88c-1.48,0-2.22.97-2.96,1.94"></path><path class="cls-2" d="m1320.59,825.27h8.98c3.01,0,5.46,2.45,5.46,5.46v4.04h-19.89v-4.04c0-3.01,2.45-5.46,5.46-5.46Z" transform="translate(2650.16 1660.04) rotate(-180)"></path><path class="cls-5" d="m1306.15,797.09c.09.18.18.36.27.54-.09-.18-.17-.36-.26-.54h0Z"></path><path class="cls-4" d="m1317.01,813.84h16.13c4.18,0,7.57,3.39,7.57,7.57v5.6h-31.27v-5.6c0-4.18,3.39-7.57,7.57-7.57Z" transform="translate(2650.16 1640.85) rotate(-180)"></path><line class="cls-12" x1="1340.71" y1="818.27" x2="1309.45" y2="818.27"></line></g></g><g><rect class="cls-4" x="208.84" y="691.34" width="176.77" height="176.77" rx="25.28" ry="25.28" transform="translate(594.46 1559.45) rotate(180)"></rect><g><path class="cls-5" d="m297.23,836.44s-43.71-19.19-43.71-52.54v-41.95l43.35-12.36,44.08,12.36v41.95c0,34.32-43.71,52.54-43.71,52.54Z"></path><path class="cls-13" d="m297.23,827.91s-36.73-16.12-36.73-44.15v-35.24l36.42-10.39,37.04,10.39v35.24c0,28.84-36.73,44.15-36.73,44.15Z"></path></g></g></svg>